<svg id="SvgjsSvg1009" xmlns="http://www.w3.org/2000/svg" version="1.1" xmlns:xlink="http://www.w3.org/1999/xlink" xmlns:svgjs="http://svgjs.com/svgjs" width="68" height="52"><defs id="SvgjsDefs1010"></defs><path id="SvgjsPath1011" d="M3474.56 1902.21L3463.31 1902.21L3456.77 1895.6100000000001C3456.7599999999998 1895.6100000000001 3456.7599999999998 1895.6000000000001 3456.75 1895.5900000000001L3456.74 1895.5800000000002C3455.75 1894.6000000000001 3454.3999999999996 1894.0000000000002 3452.91 1894.0000000000002L3439.31 1894.0000000000002C3437.73 1894.0000000000002 3436.32 1894.6900000000003 3435.33 1895.7700000000002L3435.3199999999997 1895.7500000000002L3428.9199999999996 1902.2100000000003L3417.4399999999996 1902.2100000000003C3414.4299999999994 1902.2100000000003 3411.9999999999995 1904.6600000000003 3411.9999999999995 1907.6800000000003L3411.9999999999995 1940.5300000000002C3411.9999999999995 1943.5500000000002 3414.4299999999994 1946.0000000000002 3417.4399999999996 1946.0000000000002L3474.5599999999995 1946.0000000000002C3477.5699999999997 1946.0000000000002 3479.9999999999995 1943.5500000000002 3479.9999999999995 1940.5300000000002L3479.9999999999995 1907.6800000000003C3479.9999999999995 1904.6600000000003 3477.5699999999997 1902.2100000000003 3474.5599999999995 1902.2100000000003ZM3477.28 1940.53C3477.28 1942.03 3476.0600000000004 1943.26 3474.5600000000004 1943.26L3417.4400000000005 1943.26C3415.9400000000005 1943.26 3414.7200000000007 1942.03 3414.7200000000007 1940.53L3414.7200000000007 1907.68C3414.7200000000007 1906.17 3415.9400000000005 1904.95 3417.4400000000005 1904.95L3430.0500000000006 1904.95L3430.850000000001 1904.14L3434.140000000001 1900.8200000000002L3434.2000000000007 1901.0200000000002L3437.330000000001 1897.63C3437.860000000001 1897.0500000000002 3438.560000000001 1896.74 3439.310000000001 1896.74L3452.9100000000008 1896.74C3453.6300000000006 1896.74 3454.310000000001 1897.02 3454.8400000000006 1897.55L3461.3800000000006 1904.1399999999999L3462.1800000000007 1904.9499999999998L3474.560000000001 1904.9499999999998C3476.060000000001 1904.9499999999998 3477.2800000000007 1906.1699999999998 3477.2800000000007 1907.6799999999998ZM3446 1904.95C3436.23 1904.95 3428.32 1912.91 3428.32 1922.73C3428.32 1932.56 3436.23 1940.53 3446 1940.53C3455.76 1940.53 3463.68 1932.56 3463.68 1922.73C3463.68 1912.91 3455.7599999999998 1904.95 3446 1904.95ZM3446 1937.79C3437.75 1937.79 3431.04 1931.04 3431.04 1922.73C3431.04 1914.44 3437.75 1907.68 3446 1907.68C3454.25 1907.68 3460.96 1914.44 3460.96 1922.73C3460.96 1931.04 3454.25 1937.79 3446 1937.79ZM3446 1910.42C3439.24 1910.42 3433.76 1915.93 3433.76 1922.73C3433.76 1929.54 3439.2400000000002 1935.05 3446 1935.05C3452.76 1935.05 3458.24 1929.54 3458.24 1922.73C3458.24 1915.93 3452.7599999999998 1910.42 3446 1910.42ZM3446 1932.32C3440.75 1932.32 3436.48 1928.02 3436.48 1922.73C3436.48 1917.45 3440.75 1913.16 3446 1913.16C3451.25 1913.16 3455.52 1917.45 3455.52 1922.73C3455.52 1928.02 3451.25 1932.32 3446 1932.32Z " fill="#000000" transform="matrix(1,0,0,1,-3412,-1894)"></path><path id="SvgjsPath1012" d="M3474.56 1902.21L3463.31 1902.21L3456.77 1895.6100000000001C3456.7599999999998 1895.6100000000001 3456.7599999999998 1895.6000000000001 3456.75 1895.5900000000001L3456.74 1895.5800000000002C3455.75 1894.6000000000001 3454.3999999999996 1894.0000000000002 3452.91 1894.0000000000002L3439.31 1894.0000000000002C3437.73 1894.0000000000002 3436.32 1894.6900000000003 3435.33 1895.7700000000002L3435.3199999999997 1895.7500000000002L3428.9199999999996 1902.2100000000003L3417.4399999999996 1902.2100000000003C3414.4299999999994 1902.2100000000003 3411.9999999999995 1904.6600000000003 3411.9999999999995 1907.6800000000003L3411.9999999999995 1940.5300000000002C3411.9999999999995 1943.5500000000002 3414.4299999999994 1946.0000000000002 3417.4399999999996 1946.0000000000002L3474.5599999999995 1946.0000000000002C3477.5699999999997 1946.0000000000002 3479.9999999999995 1943.5500000000002 3479.9999999999995 1940.5300000000002L3479.9999999999995 1907.6800000000003C3479.9999999999995 1904.6600000000003 3477.5699999999997 1902.2100000000003 3474.5599999999995 1902.2100000000003ZM3477.28 1940.53C3477.28 1942.03 3476.0600000000004 1943.26 3474.5600000000004 1943.26L3417.4400000000005 1943.26C3415.9400000000005 1943.26 3414.7200000000007 1942.03 3414.7200000000007 1940.53L3414.7200000000007 1907.68C3414.7200000000007 1906.17 3415.9400000000005 1904.95 3417.4400000000005 1904.95L3430.0500000000006 1904.95L3430.850000000001 1904.14L3434.140000000001 1900.8200000000002L3434.2000000000007 1901.0200000000002L3437.330000000001 1897.63C3437.860000000001 1897.0500000000002 3438.560000000001 1896.74 3439.310000000001 1896.74L3452.9100000000008 1896.74C3453.6300000000006 1896.74 3454.310000000001 1897.02 3454.8400000000006 1897.55L3461.3800000000006 1904.1399999999999L3462.1800000000007 1904.9499999999998L3474.560000000001 1904.9499999999998C3476.060000000001 1904.9499999999998 3477.2800000000007 1906.1699999999998 3477.2800000000007 1907.6799999999998ZM3446 1904.95C3436.23 1904.95 3428.32 1912.91 3428.32 1922.73C3428.32 1932.56 3436.23 1940.53 3446 1940.53C3455.76 1940.53 3463.68 1932.56 3463.68 1922.73C3463.68 1912.91 3455.7599999999998 1904.95 3446 1904.95ZM3446 1937.79C3437.75 1937.79 3431.04 1931.04 3431.04 1922.73C3431.04 1914.44 3437.75 1907.68 3446 1907.68C3454.25 1907.68 3460.96 1914.44 3460.96 1922.73C3460.96 1931.04 3454.25 1937.79 3446 1937.79ZM3446 1910.42C3439.24 1910.42 3433.76 1915.93 3433.76 1922.73C3433.76 1929.54 3439.2400000000002 1935.05 3446 1935.05C3452.76 1935.05 3458.24 1929.54 3458.24 1922.73C3458.24 1915.93 3452.7599999999998 1910.42 3446 1910.42ZM3446 1932.32C3440.75 1932.32 3436.48 1928.02 3436.48 1922.73C3436.48 1917.45 3440.75 1913.16 3446 1913.16C3451.25 1913.16 3455.52 1917.45 3455.52 1922.73C3455.52 1928.02 3451.25 1932.32 3446 1932.32Z " fill="#415560" fill-opacity="1" transform="matrix(1,0,0,1,-3412,-1894)"></path></svg>