<svg id="SvgjsSvg1000" xmlns="http://www.w3.org/2000/svg" version="1.1" xmlns:xlink="http://www.w3.org/1999/xlink" xmlns:svgjs="http://svgjs.com/svgjs" width="50" height="30"><defs id="SvgjsDefs1001"></defs><path id="SvgjsPath1007" d="M2749 2405C2739.86 2405 2732.74 2410.72 2724 2419.99C2731.53 2427.9199999999996 2737.84 2435 2749 2435C2760.16 2435 2768.35 2426.04 2774 2420.16C2768.22 2413.27 2760.02 2405 2749 2405ZM2749 2433.33C2739.1 2433.33 2733.12 2427.19 2726.3 2420C2734.4100000000003 2411.53 2740.8700000000003 2406.67 2749 2406.67C2758.63 2406.67 2766.16 2413.61 2771.76 2420.1C2766.25 2425.8399999999997 2758.7900000000004 2433.33 2749 2433.33ZM2749 2410C2743.49 2410 2739 2414.49 2739 2420C2739 2425.51 2743.49 2430 2749 2430C2754.51 2430 2759 2425.51 2759 2420C2759 2414.49 2754.51 2410 2749 2410ZM2749 2428.33C2744.41 2428.33 2740.67 2424.59 2740.67 2420C2740.67 2415.41 2744.41 2411.67 2749 2411.67C2753.59 2411.67 2757.33 2415.41 2757.33 2420C2757.33 2424.59 2753.59 2428.33 2749 2428.33ZM2749 2414.17C2745.78 2414.17 2743.17 2416.78 2743.17 2420C2743.17 2423.22 2745.78 2425.83 2749 2425.83C2752.22 2425.83 2754.83 2423.22 2754.83 2420C2754.83 2416.78 2752.22 2414.17 2749 2414.17ZM2749 2424.17C2746.7 2424.17 2744.83 2422.3 2744.83 2420C2744.83 2417.7 2746.7 2415.83 2749 2415.83C2751.3 2415.83 2753.17 2417.7 2753.17 2420C2753.17 2422.3 2751.3 2424.17 2749 2424.17Z " fill="#0de0fc" transform="matrix(1,0,0,1,-2724,-2405)"></path><path id="SvgjsPath1008" d="M2749 2405C2739.86 2405 2732.74 2410.72 2724 2419.99C2731.53 2427.9199999999996 2737.84 2435 2749 2435C2760.16 2435 2768.35 2426.04 2774 2420.16C2768.22 2413.27 2760.02 2405 2749 2405ZM2749 2433.33C2739.1 2433.33 2733.12 2427.19 2726.3 2420C2734.4100000000003 2411.53 2740.8700000000003 2406.67 2749 2406.67C2758.63 2406.67 2766.16 2413.61 2771.76 2420.1C2766.25 2425.8399999999997 2758.7900000000004 2433.33 2749 2433.33ZM2749 2410C2743.49 2410 2739 2414.49 2739 2420C2739 2425.51 2743.49 2430 2749 2430C2754.51 2430 2759 2425.51 2759 2420C2759 2414.49 2754.51 2410 2749 2410ZM2749 2428.33C2744.41 2428.33 2740.67 2424.59 2740.67 2420C2740.67 2415.41 2744.41 2411.67 2749 2411.67C2753.59 2411.67 2757.33 2415.41 2757.33 2420C2757.33 2424.59 2753.59 2428.33 2749 2428.33ZM2749 2414.17C2745.78 2414.17 2743.17 2416.78 2743.17 2420C2743.17 2423.22 2745.78 2425.83 2749 2425.83C2752.22 2425.83 2754.83 2423.22 2754.83 2420C2754.83 2416.78 2752.22 2414.17 2749 2414.17ZM2749 2424.17C2746.7 2424.17 2744.83 2422.3 2744.83 2420C2744.83 2417.7 2746.7 2415.83 2749 2415.83C2751.3 2415.83 2753.17 2417.7 2753.17 2420C2753.17 2422.3 2751.3 2424.17 2749 2424.17Z " fill="#0de0fc" fill-opacity="1" transform="matrix(1,0,0,1,-2724,-2405)"></path></svg>